<svg width="64" height="64" viewBox="0 0 64 64" fill="none" xmlns="http://www.w3.org/2000/svg">
<g clip-path="url(#clip0_4369_2599)">
<path d="M7.99992 10.0002V2.00002C7.99992 0.894421 8.89434 0 10.0002 0C11.1055 0 11.9999 0.894421 11.9999 2.00002V10.0002C11.9999 11.1055 11.1055 12 10.0002 12C8.89434 12.0001 7.99992 11.1055 7.99992 10.0002ZM42.0003 12.0001C43.1053 12.0001 44.0003 11.1057 44.0003 10.0003V2.00002C44.0003 0.894421 43.1053 0 42.0003 0C40.8947 0 39.9996 0.894421 39.9996 2.00002V10.0002C39.9996 11.1055 40.8947 12.0001 42.0003 12.0001ZM63.9997 47.9996C63.9997 56.8364 56.8359 64.0001 47.9998 64.0001C39.1643 64.0001 31.9999 56.8364 31.9999 47.9996C31.9999 39.1641 39.1641 32 47.9998 32C56.8359 32 63.9997 39.1639 63.9997 47.9996ZM60.0002 47.9996C60.0002 41.3833 54.6174 35.9998 47.9999 35.9998C41.383 35.9998 36.0001 41.3832 36.0001 47.9996C36.0001 54.6172 41.383 60 47.9999 60C54.6174 60 60.0002 54.6172 60.0002 47.9996ZM16.0001 24.0001H7.99992V32H16.0001V24.0001ZM7.99992 44.0001H16.0001V35.9998H7.99992V44.0001ZM19.9999 32H28.0002V24.0001H19.9999V32ZM19.9999 44.0001H28.0002V35.9998H19.9999V44.0001ZM4.00016 47.6019V19.9999H47.9999V28.0001H52.0001V12.3987C52.0001 9.96895 50.0622 7.99993 47.668 7.99993H45.9999V10.0003C45.9999 12.2032 44.2066 14.0002 42.0004 14.0002C39.7936 14.0002 38.0004 12.2032 38.0004 10.0003V7.99993H13.9998V10.0003C13.9998 12.2032 12.2069 14.0002 10.0003 14.0002C7.79323 14.0002 6.00017 12.2032 6.00017 10.0003V7.99993H4.334C1.93973 7.99993 0 9.96895 0 12.3987V47.6021C0 50.0238 1.93973 52.0004 4.334 52.0004H28.0002V47.9997H4.334C4.15277 47.9996 4.00016 47.8124 4.00016 47.6019ZM39.9996 32V24.0001H32.0001V32H39.9996ZM53.9999 47.9996H47.9998V41.9994C47.9998 40.8945 47.1053 40.0001 45.9998 40.0001C44.8942 40.0001 44.0003 40.8945 44.0003 41.9994V50.0003C44.0003 51.1053 44.8942 52.0003 45.9998 52.0003H53.9999C55.1055 52.0003 55.9999 51.1053 55.9999 50.0003C55.9999 48.8947 55.1055 47.9996 53.9999 47.9996Z" fill="black"/>
</g>
<defs>
<clipPath id="clip0_4369_2599">
<rect width="64" height="64" fill="white"/>
</clipPath>
</defs>
</svg>
