<svg width="52" height="52" viewBox="0 0 52 52" fill="none" xmlns="http://www.w3.org/2000/svg">
<path d="M4.33333 6.5L4.9073 6.69132C7.76739 7.64469 9.19743 8.12137 10.0154 9.25621C10.8333 10.3911 10.8333 11.8985 10.8333 14.9132V20.5833C10.8333 26.7116 10.8333 29.7757 12.7371 31.6795C14.6409 33.5833 17.7051 33.5833 23.8333 33.5833H41.1667" stroke="black" stroke-width="3" stroke-linecap="round"/>
<path d="M16.25 39C18.0449 39 19.5 40.4551 19.5 42.25C19.5 44.0449 18.0449 45.5 16.25 45.5C14.4551 45.5 13 44.0449 13 42.25C13 40.4551 14.4551 39 16.25 39Z" stroke="black" stroke-width="3"/>
<path d="M35.75 39.0002C37.5449 39.0002 39 40.4552 39 42.2502C39 44.0451 37.5449 45.5002 35.75 45.5002C33.9551 45.5002 32.5 44.0451 32.5 42.2502C32.5 40.4552 33.9551 39.0002 35.75 39.0002Z" stroke="black" stroke-width="3"/>
<path d="M10.8333 13H35.6425C40.0949 13 42.3212 13 43.2845 14.4609C44.2478 15.9218 43.3708 17.968 41.6169 22.0605L40.6884 24.2271C39.8695 26.1378 39.4601 27.0931 38.6461 27.6299C37.832 28.1667 36.7927 28.1667 34.7139 28.1667H10.8333" stroke="black" stroke-width="3"/>
</svg>
