<svg width="323" height="323" viewBox="0 0 323 323" fill="none" xmlns="http://www.w3.org/2000/svg">
<path d="M131.592 282.625H191.407C233.411 282.625 254.413 282.625 269.5 272.728C276.031 268.443 281.639 262.937 286.003 256.525C296.083 241.712 296.083 221.092 296.083 179.852C296.083 138.612 296.083 117.992 286.003 103.18C281.639 96.7673 276.031 91.2615 269.5 86.9769C259.806 80.6172 247.669 78.344 229.088 77.5315C220.221 77.5315 212.586 70.9346 210.847 62.3977C208.239 49.5925 196.787 40.375 183.486 40.375H139.513C126.213 40.375 114.761 49.5925 112.153 62.3977C110.414 70.9346 102.779 77.5315 93.912 77.5315C75.3306 78.344 63.1941 80.6172 53.5 86.9769C46.9688 91.2615 41.3611 96.7673 36.9971 103.18C26.9165 117.992 26.9165 138.612 26.9165 179.852C26.9165 221.092 26.9165 241.712 36.9971 256.525C41.3611 262.937 46.9688 268.443 53.5 272.728C68.5867 282.625 89.5886 282.625 131.592 282.625Z" stroke="black" stroke-width="6"/>
<path d="M127 127L195.992 196M196 127L127.008 196" stroke="black" stroke-width="6" stroke-linecap="round" stroke-linejoin="round"/>
</svg>
