<svg width="450" height="450" viewBox="0 0 450 450" fill="none" xmlns="http://www.w3.org/2000/svg">
<path d="M183.333 393.75H266.667C325.186 393.75 354.446 393.75 375.464 379.961C384.563 373.992 392.376 366.321 398.456 357.388C412.5 336.751 412.5 308.023 412.5 250.568C412.5 193.113 412.5 164.385 398.456 143.749C392.376 134.815 384.563 127.145 375.464 121.175C361.958 112.315 345.05 109.148 319.163 108.016C306.809 108.016 296.173 98.8253 293.75 86.9318C290.116 69.0917 274.162 56.25 255.631 56.25H194.369C175.838 56.25 159.884 69.0917 156.25 86.9318C153.827 98.8253 143.191 108.016 130.837 108.016C104.95 109.148 88.0416 112.315 74.5358 121.175C65.4366 127.145 57.6241 134.815 51.5442 143.749C37.5 164.385 37.5 193.113 37.5 250.568C37.5 308.023 37.5 336.751 51.5442 357.388C57.6241 366.321 65.4366 373.992 74.5358 379.961C95.5544 393.75 124.814 393.75 183.333 393.75Z" stroke="#F9BB8A" stroke-width="6"/>
<path d="M178 168L272.988 282.792M273 168L178.012 282.792" stroke="#F9BB8A" stroke-width="6" stroke-linecap="round" stroke-linejoin="round"/>
</svg>
