<svg width="31" height="27" viewBox="0 0 31 27" fill="none" xmlns="http://www.w3.org/2000/svg">
<path d="M11.0724 22.9869C7.02671 19.7977 1.5 16.2345 1.5 9.54798C1.5 2.86144 9.06272 -1.88052 15.25 4.54784C21.4373 -1.88052 29 2.86144 29 9.54798C29 16.2345 23.4733 19.7977 19.4276 22.9869C18 24.1123 16.625 25.172 15.25 25.172C13.875 25.172 12.5 24.1123 11.0724 22.9869Z" fill="#F9BB8A"/>
<path d="M11.0724 22.9869L10.1438 24.1649L11.0724 22.9869ZM15.25 4.54784L14.1693 5.58804C14.452 5.88183 14.8422 6.04784 15.25 6.04784C15.6578 6.04784 16.048 5.88183 16.3307 5.58804L15.25 4.54784ZM19.4276 22.9869L20.3562 24.1649V24.1649L19.4276 22.9869ZM11.0724 22.9869L12.001 21.8089C9.88917 20.1441 7.66229 18.5778 5.89063 16.5829C4.1704 14.6458 3 12.4231 3 9.54798H1.5H0C0 13.3594 1.59296 16.2615 3.6475 18.575C5.65061 20.8305 8.20993 22.6404 10.1438 24.1649L11.0724 22.9869ZM1.5 9.54798H3C3 6.76591 4.57134 4.45718 6.67836 3.49405C8.69084 2.57415 11.4595 2.77271 14.1693 5.58804L15.25 4.54784L16.3307 3.50763C12.8532 -0.105396 8.74688 -0.75003 5.43118 0.765589C2.21002 2.23799 0 5.64351 0 9.54798H1.5ZM11.0724 22.9869L10.1438 24.1649C10.8438 24.7167 11.6251 25.3296 12.4241 25.7966C13.2227 26.2632 14.1817 26.672 15.25 26.672V25.172V23.672C14.9433 23.672 14.5273 23.5509 13.9377 23.2064C13.3486 22.8621 12.7286 22.3825 12.001 21.8089L11.0724 22.9869ZM19.4276 22.9869L20.3562 24.1649C22.2901 22.6404 24.8494 20.8305 26.8525 18.575C28.907 16.2615 30.5 13.3594 30.5 9.54798H29H27.5C27.5 12.4231 26.3296 14.6458 24.6094 16.5829C22.8377 18.5778 20.6108 20.1441 18.499 21.8089L19.4276 22.9869ZM29 9.54798H30.5C30.5 5.64351 28.29 2.23799 25.0688 0.765589C21.7531 -0.75003 17.6468 -0.105396 14.1693 3.50763L15.25 4.54784L16.3307 5.58804C19.0405 2.77271 21.8092 2.57415 23.8216 3.49405C25.9287 4.45718 27.5 6.76591 27.5 9.54798H29ZM19.4276 22.9869L18.499 21.8089C17.7714 22.3825 17.1514 22.8621 16.5623 23.2064C15.9727 23.5509 15.5567 23.672 15.25 23.672V25.172V26.672C16.3183 26.672 17.2773 26.2632 18.0759 25.7966C18.8749 25.3296 19.6562 24.7167 20.3562 24.1649L19.4276 22.9869Z" fill="white"/>
</svg>
