<svg width="80" height="80" viewBox="0 0 80 80" fill="none" xmlns="http://www.w3.org/2000/svg">
<path d="M30.0065 23.3332C30.0468 16.0831 30.3683 12.1567 32.9296 9.59544C35.8585 6.6665 40.5726 6.6665 50.0007 6.6665L53.334 6.6665C62.7621 6.6665 67.4761 6.6665 70.4051 9.59544C73.334 12.5244 73.334 17.2384 73.334 26.6665L73.334 53.3332C73.334 62.7613 73.334 67.4753 70.4051 70.4042C67.4761 73.3332 62.7621 73.3332 53.334 73.3332L50.0007 73.3332C40.5726 73.3332 35.8585 73.3332 32.9296 70.4042C30.3683 67.843 30.0468 63.9166 30.0065 56.6665" stroke="white" stroke-width="2.5" stroke-linecap="round"/>
<path d="M6.66663 40L50 40M50 40L38.3333 30M50 40L38.3333 50" stroke="white" stroke-width="2.5" stroke-linecap="round" stroke-linejoin="round"/>
</svg>
