<svg width="64" height="64" viewBox="0 0 64 64" fill="none" xmlns="http://www.w3.org/2000/svg">
<path fill-rule="evenodd" clip-rule="evenodd" d="M55.0682 64H7.93182C4.10268 64 1 60.8863 1 57.0435V1.3913C1 0.623304 1.6197 0 2.38636 0H49.5227C50.0967 0 50.5902 0.350609 50.801 0.850087C50.8703 1.01565 50.9091 1.1993 50.9091 1.3913V20.8696H60.6136C61.3803 20.8696 62 21.4929 62 22.2609V57.0435C62 60.8863 58.8973 64 55.0682 64ZM48.1364 57.0435V2.78261H3.77273V57.0435C3.77273 59.3489 5.636 61.2174 7.93182 61.2174H49.5532C48.677 60.0515 48.1364 58.617 48.1364 57.0435ZM59.2273 23.6522H50.9091V57.0435C50.9091 59.3489 52.771 61.2174 55.0682 61.2174C57.3654 61.2174 59.2273 59.3489 59.2273 57.0435V23.6522ZM7.93182 54.2609C7.93182 53.4929 8.55152 52.8696 9.31818 52.8696H21.7955C22.5621 52.8696 23.1818 53.4929 23.1818 54.2609C23.1818 55.0303 22.5621 55.6522 21.7955 55.6522H9.31818C8.55152 55.6522 7.93182 55.0303 7.93182 54.2609ZM14.4006 31.6035C13.8724 32.1336 13.0156 32.1336 12.486 31.6035C11.9578 31.0734 11.9578 30.2122 12.486 29.6821L20.6725 21.4664C20.7169 21.401 20.746 21.3259 20.8042 21.2675C21.0773 20.9934 21.4378 20.8668 21.7955 20.8751C22.1531 20.8668 22.5136 20.992 22.7867 21.2675C22.8449 21.3259 22.8727 21.401 22.9184 21.4664L28.7273 27.296L31.7634 24.249C31.8078 24.1837 31.8369 24.1085 31.8951 24.0501C32.1682 23.776 32.5287 23.6494 32.8864 23.6591C33.244 23.6494 33.6045 23.776 33.8776 24.0501C33.9358 24.1085 33.9636 24.1837 34.0093 24.249L39.4231 29.6821C39.9513 30.2122 39.9513 31.0734 39.4231 31.6035C38.8935 32.1336 38.0367 32.1336 37.5085 31.6035L32.8864 26.9649L30.6418 29.2174L31.1049 29.6821C31.6331 30.2122 31.6331 31.0734 31.1049 31.6035C30.5767 32.1336 29.7185 32.1336 29.1903 31.6035L21.7955 24.1823L14.4006 31.6035ZM30.1136 38.9565H42.5909C43.3576 38.9565 43.9773 39.5798 43.9773 40.3478C43.9773 41.1172 43.3576 41.7391 42.5909 41.7391H30.1136C29.347 41.7391 28.7273 41.1172 28.7273 40.3478C28.7273 39.5798 29.347 38.9565 30.1136 38.9565ZM30.1136 45.913H42.5909C43.3576 45.913 43.9773 46.5363 43.9773 47.3043C43.9773 48.0737 43.3576 48.6957 42.5909 48.6957H30.1136C29.347 48.6957 28.7273 48.0737 28.7273 47.3043C28.7273 46.5363 29.347 45.913 30.1136 45.913ZM30.1136 52.8696H42.5909C43.3576 52.8696 43.9773 53.4929 43.9773 54.2609C43.9773 55.0303 43.3576 55.6522 42.5909 55.6522H30.1136C29.347 55.6522 28.7273 55.0303 28.7273 54.2609C28.7273 53.4929 29.347 52.8696 30.1136 52.8696ZM31.5 20.1739C31.5 21.3273 30.5684 22.2609 29.4205 22.2609C28.2725 22.2609 27.3409 21.3273 27.3409 20.1739C27.3409 19.0205 28.2725 18.087 29.4205 18.087C30.5684 18.087 31.5 19.0205 31.5 20.1739ZM35.6591 12.5217H16.25C15.4833 12.5217 14.8636 11.8984 14.8636 11.1304C14.8636 10.3624 15.4833 9.73913 16.25 9.73913H35.6591C36.4257 9.73913 37.0455 10.3624 37.0455 11.1304C37.0455 11.8984 36.4257 12.5217 35.6591 12.5217ZM9.31818 45.913H21.7955C22.5621 45.913 23.1818 46.5363 23.1818 47.3043C23.1818 48.0737 22.5621 48.6957 21.7955 48.6957H9.31818C8.55152 48.6957 7.93182 48.0737 7.93182 47.3043C7.93182 46.5363 8.55152 45.913 9.31818 45.913ZM23.1818 40.3478C23.1818 41.1172 22.5621 41.7391 21.7955 41.7391H9.31818C8.55152 41.7391 7.93182 41.1172 7.93182 40.3478C7.93182 39.5798 8.55152 38.9565 9.31818 38.9565H21.7955C22.5621 38.9565 23.1818 39.5798 23.1818 40.3478Z" fill="black"/>
</svg>
