<svg width="109" height="107" viewBox="0 0 109 107" fill="none" xmlns="http://www.w3.org/2000/svg">
<path d="M1.42366 78.324C0.85878 74.8713 0.85878 71.3475 1.42366 67.8948C4.89405 67.978 8.01174 66.2888 9.22417 63.3168C10.4366 60.3416 9.40682 56.9057 6.89378 54.4776C8.89796 51.6281 11.3516 49.1344 14.1558 47.0972C16.5492 49.6501 19.9314 50.6962 22.8601 49.4646C25.7888 48.2329 27.4485 45.0625 27.3634 41.5403C30.7643 40.9657 34.2352 40.9657 37.636 41.5403C37.551 45.0657 39.2138 48.2329 42.1394 49.4646C45.0681 50.6962 48.4503 49.6501 50.8405 47.0972C53.6456 49.1332 56.1003 51.6258 58.1057 54.4744C55.5927 56.9057 54.5629 60.3416 55.7753 63.3168C56.9877 66.292 60.1086 67.978 63.5758 67.8916C64.1414 71.3464 64.1414 74.8724 63.5758 78.3272C60.1054 78.2408 56.9877 79.9299 55.7753 82.9019C54.5629 85.8771 55.5927 89.313 58.1057 91.7411C56.1015 94.5907 53.6478 97.0844 50.8437 99.1216C48.4503 96.5687 45.0681 95.5225 42.1394 96.7542C39.2106 97.9859 37.551 101.156 37.636 104.678C34.2352 105.253 30.7643 105.253 27.3634 104.678C27.4485 101.153 25.7857 97.9859 22.8601 96.7542C19.9314 95.5225 16.5492 96.5687 14.1589 99.1216C11.3539 97.0856 8.89917 94.593 6.89378 91.7444C9.40682 89.313 10.4366 85.8771 9.22417 82.9019C8.01174 79.9267 4.8909 78.2376 1.42366 78.324ZM32.4997 82.7068C35.0054 82.7068 37.4084 81.6956 39.1802 79.8958C40.9519 78.0959 41.9473 75.6548 41.9473 73.1094C41.9473 70.564 40.9519 68.1228 39.1802 66.323C37.4084 64.5231 35.0054 63.512 32.4997 63.512C29.9941 63.512 27.5911 64.5231 25.8193 66.323C24.0476 68.1228 23.0522 70.564 23.0522 73.1094C23.0522 75.6548 24.0476 78.0959 25.8193 79.8958C27.5911 81.6956 29.9941 82.7068 32.4997 82.7068Z" fill="black"/>
<path d="M69.3229 56.0061C66.7941 55.3017 64.3989 54.1848 62.2339 52.7004C63.4079 50.3304 63.2636 47.6422 61.6338 45.8629C60.0019 44.0827 57.3349 43.7047 54.8752 44.6704C53.5836 42.3833 52.6787 39.8986 52.1968 37.3165C54.7028 36.473 56.5029 34.4691 56.6087 32.0564C56.7146 29.6436 55.094 27.4927 52.6724 26.435C53.3769 23.9046 54.4946 21.5078 55.9801 19.3416C58.3491 20.5177 61.0373 20.3734 62.8166 18.7436C64.5968 17.1117 64.9748 14.4446 64.0091 11.9849C66.2962 10.6934 68.781 9.78837 71.363 9.30651C72.2065 11.8125 74.2103 13.6126 76.6231 13.7184C79.0358 13.8242 81.1867 12.2036 82.2444 9.78205C84.7749 10.4866 87.1716 11.6042 89.3378 13.0897C88.1616 15.4587 88.3059 18.147 89.9357 19.9262C91.5676 21.7064 94.2347 22.0844 96.6943 21.1187C97.9859 23.4058 98.8909 25.8906 99.3727 28.4726C96.8668 29.3161 95.0666 31.32 94.9608 33.7328C94.855 36.1455 96.4756 38.2964 98.8971 39.3541C98.1926 41.8846 97.075 44.2813 95.5894 46.4475C93.2204 45.2714 90.5322 45.4157 88.753 47.0455C86.9727 48.6774 86.5948 51.3445 87.5604 53.8042C85.2733 55.0958 82.7886 56.0008 80.2065 56.4826C79.3631 53.9766 77.3592 52.1765 74.9465 52.0707C72.5337 51.9649 70.3807 53.5845 69.3229 56.0061ZM82.3084 35.9366C83.1152 34.2064 83.2017 32.2266 82.5487 30.4326C81.8958 28.6387 80.557 27.1776 78.8268 26.3708C77.0966 25.5641 75.1168 25.4776 73.3229 26.1306C71.529 26.7835 70.0679 28.1223 69.2611 29.8525C68.4543 31.5827 68.3679 33.5626 69.0208 35.3565C69.6737 37.1504 71.0125 38.6115 72.7427 39.4183C74.4729 40.2251 76.4527 40.3115 78.2466 39.6586C80.0405 39.0056 81.5016 37.6668 82.3084 35.9366Z" fill="black"/>
</svg>
