<svg width="64" height="64" viewBox="0 0 64 64" fill="none" xmlns="http://www.w3.org/2000/svg">
<g clip-path="url(#clip0_4369_2573)">
<path d="M4.74074 4.74805C2.13327 4.74805 0 6.88132 0 9.48879V28.4518L31.763 60.2147C33.4222 61.8739 36.0296 62.111 37.9259 60.6887L4.74074 27.2665V4.74805Z" fill="black"/>
<path d="M62.578 34.1409L30.815 2.37793H11.8521C9.2446 2.37793 7.11133 4.5112 7.11133 7.11867V26.0816L38.8743 57.8446C40.7706 59.7409 43.852 59.7409 45.5113 57.8446L62.578 40.7779C64.4743 38.8816 64.4743 36.0372 62.578 34.1409ZM20.1483 18.9705C18.252 18.9705 16.5927 17.3112 16.5927 15.4149C16.5927 13.5186 18.252 11.8593 20.1483 11.8593C22.0446 11.8593 23.7039 13.5186 23.7039 15.4149C23.7039 17.3112 22.0446 18.9705 20.1483 18.9705Z" fill="black"/>
</g>
<defs>
<clipPath id="clip0_4369_2573">
<rect width="64" height="64" fill="white"/>
</clipPath>
</defs>
</svg>
